<?xml version="1.0" encoding="utf-8"?>
<!-- Generator: Adobe Illustrator 23.1.0, SVG Export Plug-In . SVG Version: 6.00 Build 0)  -->
<svg version="1.1" id="Layer_1" xmlns="http://www.w3.org/2000/svg" xmlns:xlink="http://www.w3.org/1999/xlink" x="0px" y="0px"
	 viewBox="0 0 1243.83 302.97" style="enable-background:new 0 0 1243.83 302.97;" xml:space="preserve">
<style type="text/css">
	.st0{fill:#FFFFFF;stroke:#000000;stroke-miterlimit:10;}
	.st1{fill:#FCEE21;stroke:#000000;stroke-miterlimit:10;}
</style>
<path class="st0" d="M0.41,141.52c39.67-58.88,95.09-120.9,157-117c73.67,4.64,86.29,98.2,172,119c103.5,25.12,148.31-95.97,272-92
	c132.74,4.26,158.51,146.19,272,141c135.76-6.21,215.94-214.63,272-190c41.1,18.06,20.66,140.02,55,147c14.4,2.93,30.68-15.93,43-34
	"/>
<polygon class="st1" points="1173.91,302.02 1101.38,258.58 1024.47,293.71 1043.37,211.3 986.2,149.01 1070.41,141.52 
	1111.99,67.9 1145.14,145.68 1228,162.46 1164.27,218.03 "/>
</svg>
